#!OML:ASF F:\twosubjects\two\Thursday\Session 1\justin.ASF
:FULLY-SPECIFIED
:DEGREES
703
root 7.93869 15.0916 -13.1905 27.0528 26.4691 11.9226
lowerback 33.1733 2.69215 3.79833
upperback 3.58365 5.6871 5.18094
thorax -13.2872 2.49709 1.22681
lowerneck -15.7291 -12.1707 -15.6987
upperneck 7.80693 -14.5527 11.6801
head 6.93857 -6.75197 4.50547
rclavicle 1.59028e-014 -5.08889e-014
rhumerus 31.1127 -7.23755 -70.0012
rradius 131.262
rwrist -74.4659
rhand -33.706 13.1346
rfingers 7.12502
rthumb -6.89572 -16.7331
lclavicle 1.59028e-014 -5.08889e-014
lhumerus 25.8842 -50.6444 87.6984
lradius 66.6945
lwrist -0.537983
lhand -15.5807 -310.462
lfingers 7.12502
lthumb 10.6046 -280.749
rfemur -59.7844 -28.3523 -7.8828
rtibia 56.7761
rfoot -9.03089 -3.0686
rtoes -37.5256
lfemur -40.3809 8.27001 -4.17777
ltibia 39.9461
lfoot -20.6986 -3.45071
ltoes -35.0298
704
root 7.95635 15.068 -13.1771 26.8536 26.2995 11.7916
lowerback 33.241 2.85678 3.49713
upperback 3.65675 5.82632 5.42149
thorax -13.2972 2.57985 1.58635
lowerneck -15.3825 -12.2858 -15.7185
upperneck 7.59055 -14.8137 12.1838
head 6.89576 -6.85605 4.64725
rclavicle -6.99722e-014 -9.54166e-015
rhumerus 31.5371 -7.44197 -70.067
rradius 131.164
rwrist -75.3051
rhand -34.1164 14.0154
rfingers 7.12502
rthumb -7.29191 -15.8389
lclavicle -6.99722e-014 -9.54166e-015
lhumerus 25.8033 -50.6853 87.8057
lradius 66.8965
lwrist -0.455627
lhand -15.4568 -310.142
lfingers 7.12502
lthumb 10.7242 -280.435
rfemur -59.8685 -28.3606 -7.67576
rtibia 56.9795
rfoot -9.15108 -3.03258
rtoes -39.8498
lfemur -40.2664 8.4164 -4.12117
ltibia 40.273
lfoot -20.9844 -3.07125
ltoes -36.0701
705
root 7.96827 15.0607 -13.1661 26.7317 26.2361 11.7447
lowerback 33.3971 2.90518 3.17292
upperback 3.58928 5.83188 5.68887
thorax -13.5111 2.5999 2.03504
lowerneck -14.7686 -12.2955 -16.1424
upperneck 7.39022 -14.9071 12.8212
head 6.83553 -6.89393 4.93019
rclavicle -6.36111e-015 -6.04305e-014
rhumerus 31.8207 -7.38267 -70.1466
rradius 131.24
rwrist -76.294
rhand -34.6844 14.4407
rfingers 7.12502
rthumb -7.84013 -15.3939
lclavicle -6.36111e-015 -6.04305e-014
lhumerus 25.1719 -50.3976 88.4295
lradius 66.9603
lwrist -0.688442
lhand -15.9686 -310.035
lfingers 7.12502
lthumb 10.2305 -280.304
rfemur -59.8129 -28.2437 -7.76836
rtibia 57.1362
rfoot -9.29994 -2.96287
rtoes -39.5437
lfemur -40.2905 8.44427 -4.11904
ltibia 40.6769
lfoot -21.5983 -2.45936
ltoes -37.6672
706
root 7.98646 15.0442 -13.1632 26.832 26.6049 11.6728
lowerback 33.4365 2.77682 3.64322
upperback 3.64329 5.8363 5.68445
thorax -13.4144 2.58011 1.77971
lowerneck -15.5777 -12.6304 -15.8908
upperneck 7.544 -15.3506 13.1234
head 7.08988 -7.0439 4.87931
rclavicle 5.40694e-014 4.13472e-014
rhumerus 32.5441 -8.08988 -70.4427
rradius 131.053
rwrist -77.0204
rhand -34.8532 14.9689
rfingers 7.12502
rthumb -8.00304 -14.8596
lclavicle 5.40694e-014 4.13472e-014
lhumerus 25.6579 -50.6915 88.0393
lradius 67.0875
lwrist -0.845074
lhand -15.9061 -309.944
lfingers 7.12502
lthumb 10.2907 -280.216
rfemur -59.7862 -28.5199 -7.68985
rtibia 57.2391
rfoot -9.25876 -2.96101
rtoes -39.3542
lfemur -40.7477 8.32218 -3.9601
ltibia 41.1015
lfoot -21.9649 -2.35093
ltoes -38.1469
707
root 8.00692 15.0349 -13.1525 26.4748 26.9033 11.4007
lowerback 33.9302 2.74026 4.40711
upperback 3.71619 6.07122 5.55308
thorax -13.4343 2.63701 1.12361
lowerneck -16.5733 -13.0545 -15.1555
upperneck 7.84105 -15.9809 13.1827
head 7.38577 -7.27257 4.63441
rclavicle -2.22639e-014 -6.36111e-014
rhumerus 33.0792 -9.14513 -70.884
rradius 130.701
rwrist -77.4651
rhand -34.876 15.5606
rfingers 7.12502
rthumb -8.02506 -14.267
lclavicle -2.22639e-014 -6.36111e-014
lhumerus 26.1655 -51.3577 87.6465
lradius 67.2526
lwrist -1.00311
lhand -14.9292 -310.129
lfingers 7.12502
lthumb 11.2331 -280.449
rfemur -59.3406 -28.541 -7.57662
rtibia 57.2594
rfoot -9.2841 -3.32226
rtoes -38.9425
lfemur -40.6556 8.34085 -3.63036
ltibia 41.4458
lfoot -21.9519 -2.74972
ltoes -36.9531
708
root 8.03243 15.0314 -13.1486 26.3973 27.1507 11.4149
lowerback 34.0143 2.56734 4.87823
upperback 3.78217 6.01206 5.47001
thorax -13.3277 2.589 0.81107
lowerneck -16.7575 -13.2737 -15.0798
upperneck 7.88206 -16.3542 13.6903
head 7.52849 -7.40035 4.71306
rclavicle -7.31528e-014 -6.67916e-014
rhumerus 33.5012 -9.54512 -71.5019
rradius 130.478
rwrist -78.1079
rhand -35.0744 15.9746
rfingers 7.12502
rthumb -8.2166 -13.8457
lclavicle -7.31528e-014 -6.67916e-014
lhumerus 26.2909 -51.5999 87.5255
lradius 67.511
lwrist -0.738563
lhand -14.7358 -310.254
lfingers 7.12502
lthumb 11.4195 -280.585
rfemur -58.9706 -28.6617 -7.73591
rtibia 57.2267
rfoot -9.31289 -3.92242
rtoes -38.8749
lfemur -40.749 8.13259 -3.61623
ltibia 41.7441
lfoot -21.8296 -2.85742
ltoes -35.2165
709
root 8.05714 15.0339 -13.1442 26.4715 27.205 11.5284
lowerback 33.8307 2.5239 5.04071
upperback 3.97461 5.97966 5.43359
thorax -13.0079 2.5805 0.713037
lowerneck -16.5215 -13.4422 -15.215
upperneck 7.24776 -16.6321 14.4038
head 7.41042 -7.5066 4.93234
rclavicle -6.04305e-014 5.40694e-014
rhumerus 34.1507 -9.94401 -71.9483
rradius 130.246
rwrist -79.061
rhand -35.1895 16.5456
rfingers 7.12502
rthumb -8.32764 -13.2702
lclavicle -6.04305e-014 5.40694e-014
lhumerus 26.6343 -51.9864 87.215
lradius 67.8569
lwrist -0.0475524
lhand -16.5307 -310.342
lfingers 7.12502
lthumb 9.68817 -280.585
rfemur -58.7349 -28.6378 -8.03932
rtibia 57.1548
rfoot -9.33583 -4.21928
rtoes -39.8453
lfemur -40.8315 7.97132 -3.77918
ltibia 41.9232
lfoot -21.8951 -2.71941
ltoes -34.8135
710
root 8.07796 15.0415 -13.1333 26.4016 27.2069 11.5173
lowerback 33.9074 2.54149 5.05739
upperback 4.02119 6.01488 5.46226
thorax -12.9873 2.59674 0.719241
lowerneck -16.1111 -13.4651 -15.1843
upperneck 6.62467 -16.7294 14.8697
head 7.2044 -7.55082 5.08777
rclavicle 1.27222e-014 2.8625e-014
rhumerus 34.5889 -10.2115 -72.329
rradius 129.964
rwrist -79.9941
rhand -34.8876 16.9986
rfingers 7.12502
rthumb -8.03626 -12.8286
lclavicle 1.27222e-014 2.8625e-014
lhumerus 26.5725 -52.4001 87.008
lradius 68.3678
lwrist 0.414745
lhand -17.8432 -310.188
lfingers 7.12502
lthumb 8.42166 -280.376
rfemur -58.4185 -28.4083 -8.32626
rtibia 57.1015
rfoot -9.47215 -4.31972
rtoes -39.9993
lfemur -40.7285 7.96522 -3.84114
ltibia 42.0318
lfoot -22.0058 -2.64561
ltoes -36.085
711
root 8.09386 15.0479 -13.1228 26.3308 27.2798 11.5246
lowerback 34.169 2.53084 5.13455
upperback 3.95318 6.05142 5.43098
thorax -13.1584 2.5999 0.618717
lowerneck -16.3788 -13.5597 -14.8198
upperneck 6.88307 -16.9222 14.825
head 7.32483 -7.61725 4.97043
rclavicle -3.18055e-014 -3.81667e-014
rhumerus 34.6257 -10.4242 -72.788
rradius 129.885
rwrist -80.4245
rhand -34.5851 16.911
rfingers 7.12502
rthumb -7.74435 -12.9271
lclavicle -3.18055e-014 -3.81667e-014
lhumerus 26.2872 -52.8345 86.9452
lradius 68.9607
lwrist 0.745588
lhand -16.9965 -309.744
lfingers 7.12502
lthumb 9.23869 -279.966
rfemur -58.144 -28.2666 -8.53354
rtibia 57.1228
rfoot -9.6109 -4.48505
rtoes -39.528
lfemur -40.6592 7.99321 -3.89499
ltibia 42.0953
lfoot -22.0181 -2.77639
ltoes -36.7866
712
root 8.10881 15.036 -13.1145 26.4832 27.2106 11.578
lowerback 34.2264 2.62952 5.06632
upperback 3.88674 6.15631 5.40882
thorax -13.2626 2.64352 0.583427
lowerneck -16.6221 -13.7151 -14.5331
upperneck 7.12868 -17.1738 14.7019
head 7.44263 -7.72048 4.82932
rclavicle 0 4.77083e-014
rhumerus 34.566 -10.6343 -73.151
rradius 130.192
rwrist -80.7924
rhand -34.6835 16.6548
rfingers 7.12502
rthumb -7.83934 -13.1798
lclavicle 0 4.77083e-014
lhumerus 25.9462 -52.999 87.4326
lradius 69.1595
lwrist 0.783096
lhand -15.9122 -309.687
lfingers 7.12502
lthumb 10.2849 -279.958
rfemur -58.3017 -28.2892 -8.57302
rtibia 57.2367
rfoot -9.61788 -4.5832
rtoes -40.0084
lfemur -40.795 8.22586 -4.06579
ltibia 42.1301
lfoot -22.3059 -2.81504
ltoes -37.0019
713
root 8.12329 15.023 -13.1023 26.6721 27.0876 11.7138
lowerback 34.1333 2.69804 4.63004
upperback 3.93928 6.07828 5.44302
thorax -13.2181 2.63435 0.884738
lowerneck -16.5333 -13.6696 -14.3843
upperneck 6.89399 -17.1852 15.0754
head 7.38345 -7.70448 4.93336
rclavicle 1.90833e-014 3.18055e-015
rhumerus 34.7785 -10.4734 -73.4794
rradius 130.296
rwrist -81.011
rhand -34.7604 16.8043
rfingers 7.12502
rthumb -7.91354 -13.0276
lclavicle 1.90833e-014 3.18055e-015
lhumerus 25.8157 -52.6814 87.6195
lradius 69.2212
lwrist 0.575244
lhand -15.6504 -309.834
lfingers 7.12502
lthumb 10.5374 -280.118
rfemur -58.4515 -28.2767 -8.74012
rtibia 57.3764
rfoot -9.6032 -4.68368
rtoes -40.3276
lfemur -40.8458 8.41902 -4.31465
ltibia 42.1411
lfoot -22.6256 -2.7683
ltoes -37.1331
714
root 8.14064 15.0262 -13.0856 26.7632 27.0955 11.9046
lowerback 34.1555 2.63334 4.2754
upperback 3.98791 5.86629 5.43498
thorax -13.207 2.55949 1.14914
lowerneck -16.1945 -13.5211 -14.2353
upperneck 6.35091 -17.0793 15.6606
head 7.19144 -7.63924 5.14185
rclavicle -3.18055e-015 7.31528e-014
rhumerus 34.9541 -10.3524 -73.281
rradius 129.55
rwrist -81.1447
rhand -34.4588 17.6426
rfingers 7.12502
rthumb -7.62243 -12.2001
lclavicle -3.18055e-015 7.31528e-014
lhumerus 25.6458 -52.4546 87.4764
lradius 69.3738
lwrist 0.221152
lhand -15.8016 -310.108
lfingers 7.12502
lthumb 10.3915 -280.385
rfemur -58.3391 -28.3432 -8.97339
rtibia 57.4483
rfoot -9.70354 -4.81049
rtoes -40.052
lfemur -40.7568 8.33136 -4.50615
ltibia 42.1594
lfoot -22.4401 -3.11462
ltoes -36.057
715
root 8.16251 15.0398 -13.0713 26.6357 27.2683 11.8344
lowerback 34.3616 2.54147 4.7
upperback 3.96835 5.91178 5.37161
thorax -13.2581 2.55409 0.832253
lowerneck -15.3279 -13.6773 -14.3544
upperneck 5.39554 -17.375 16.4849
head 6.89259 -7.79858 5.42275
rclavicle 1.08139e-013 -1.27222e-014
rhumerus 35.0732 -10.8564 -74.0211
rradius 129.953
rwrist -80.789
rhand -34.0659 16.3988
rfingers 7.12502
rthumb -7.24315 -13.4573
lclavicle 1.08139e-013 -1.27222e-014
lhumerus 25.4621 -52.8618 87.699
lradius 69.3727
lwrist -0.373482
lhand -15.9412 -310.522
lfingers 7.12502
lthumb 10.2569 -280.792
rfemur -58.0133 -28.3408 -8.97264
rtibia 57.4218
rfoot -9.77058 -5.01181
rtoes -38.9068
lfemur -40.6527 8.18553 -4.39664
ltibia 42.1967
lfoot -22.1939 -3.6119
ltoes -34.7728
716
root 8.18577 15.0596 -13.0647 26.465 27.3401 11.5885
lowerback 34.6409 2.46957 5.2875
upperback 3.89783 6.04528 5.26294
thorax -13.3714 2.57377 0.342374
lowerneck -14.8567 -13.9871 -14.4613
upperneck 5.14425 -17.9148 17.31
head 6.92528 -8.03764 5.63005
rclavicle 2.54444e-014 3.18055e-015
rhumerus 35.1814 -11.0948 -73.028
rradius 129.451
rwrist -80.2417
rhand -34.0284 16.5179
rfingers 7.12502
rthumb -7.20694 -13.3394
lclavicle 2.54444e-014 3.18055e-015
lhumerus 25.2392 -53.3274 88.0054
lradius 69.3551
lwrist -0.629107
lhand -15.8597 -310.563
lfingers 7.12502
lthumb 10.3355 -280.837
rfemur -57.7266 -28.0067 -8.92266
rtibia 57.3219
rfoot -9.68695 -5.37104
rtoes -40.5043
lfemur -40.5811 8.16249 -4.21058
ltibia 42.291
lfoot -22.4271 -3.57584
ltoes -34.8283
717
root 8.2086 15.0712 -13.0588 26.5517 27.2634 11.5771
lowerback 34.8529 2.40668 5.33973
upperback 3.73463 5.99547 5.14285
thorax -13.6237 2.5328 0.194165
lowerneck -15.0015 -14.0507 -14.1406
upperneck 5.71809 -18.1141 17.2608
head 7.12903 -8.10068 5.51812
rclavicle -5.40694e-014 -9.54166e-015
rhumerus 34.7217 -10.7539 -73.1012
rradius 129.249
rwrist -79.148
rhand -33.2214 16.1442
rfingers 7.12502
rthumb -6.428 -13.7383
lclavicle -5.40694e-014 -9.54166e-015
lhumerus 24.894 -53.4261 88.1198
lradius 69.4209
lwrist -0.370268
lhand -15.8643 -310.132
lfingers 7.12502
lthumb 10.3311 -280.406
rfemur -57.6631 -27.8185 -8.99862
rtibia 57.2229
rfoot -9.59593 -5.67826
rtoes -39.9391
lfemur -40.6443 8.12338 -4.29248
ltibia 42.4574
lfoot -22.737 -3.24395
ltoes -35.2538
